<?xml version="1.0" encoding="UTF-8"?><svg id="Layer_2" xmlns="http://www.w3.org/2000/svg" viewBox="0 0 87.35 119.09"><g id="Layer_1-2"><g><path d="M41.86,119.09c-1.56-3.23-2.55-6.28-3.06-9.48-2.42-15.08,4.22-29.06,17.43-37.03,11.45-6.91,18.25-17.05,20.32-30.25,2.56-16.34-5.42-33.25-19.55-41.78-.2-.12-.39-.25-.53-.56,.44,.15,.89,.28,1.31,.46,17.07,6.98,27.12,19.59,29.27,37.91,2.41,20.53-9.97,39.95-29.4,47.13-.81,.3-1.63,.69-2.32,1.2-10.63,7.91-15.21,18.42-13.48,31.62,.02,.14,0,.28,0,.77Zm.48-22.48c.12-.19,.26-.37,.37-.56,2.68-4.83,6.26-8.85,10.81-11.97,1-.69,2.12-1.27,3.26-1.7,22-8.28,33-32.91,24.4-54.79-.98-2.48-2.29-4.84-3.45-7.25-.12,.05-.23,.1-.35,.16,.1,.29,.19,.59,.29,.87,1.5,4.16,2.42,8.46,2.5,12.87,.31,18.09-7.3,31.87-22.67,41.43-2.42,1.5-4.73,3.29-6.77,5.27-4.41,4.3-7.15,9.6-8.4,15.67Z"/><path d="M51.54,5.29c-13.71-1.89-25.09,2.23-32.93,13.79-7.5,11.06-7.91,22.98-1.08,34.48,7.46,12.55,19.05,17.24,33.21,15.66-10.79,5.7-29.1,5.36-41.48-8.21C-2.73,47.87-3.12,27.79,8.35,14.19,20.02,.34,38.75-1.51,51.54,5.29Zm-22.71,63.46C3.43,55.17,3.6,18.95,28.38,5.68,15.66,8.23,3.64,20.2,3.26,36.39c-.38,16.35,11.3,29.4,25.57,32.36Z"/><path d="M71.29,37.13c-.02,14.28-11.67,25.89-25.96,25.87-14.3-.02-25.92-11.65-25.9-25.93,.02-14.28,11.66-25.88,25.96-25.86,14.31,.02,25.92,11.65,25.9,25.92Zm-25.93,22.64c12.53,0,22.68-10.16,22.68-22.69,0-12.47-10.11-22.59-22.61-22.65-12.51-.05-22.71,10.11-22.73,22.64-.01,12.55,10.12,22.7,22.66,22.7Z"/></g></g></svg>