<?xml version="1.0" encoding="UTF-8"?><svg id="Layer_2" xmlns="http://www.w3.org/2000/svg" viewBox="0 0 59.89 119.47"><g id="Layer_1-2"><g><path d="M27.33,119.47c-2.14-.47-4.32-.78-6.4-1.43C4.73,112.92-3.92,95.48,1.73,79.48,11.07,53.08,20.41,26.69,29.75,.29c.02-.07,.09-.12,.23-.29,.17,.41,.32,.75,.44,1.09,9.03,25.53,17.99,51.09,27.14,76.58,2.69,7.48,3.33,14.88,.41,22.3-4.38,11.12-12.64,17.5-24.45,19.28-.31,.05-.62,.14-.92,.21h-5.27ZM29.98,8.89c-.17,.29-.22,.36-.24,.43C21.4,32.9,13.04,56.49,4.75,80.09c-.75,2.13-1.34,4.38-1.55,6.61-1.73,17.77,13.26,32,30.91,29.44,16.4-2.39,26.86-19.71,21.34-35.32-6.99-19.75-13.98-39.51-20.97-59.27-1.47-4.15-2.95-8.31-4.49-12.67Z"/><path d="M9,89.4c.07-11.61,9.53-20.97,21.12-20.88,11.54,.09,20.85,9.54,20.79,21.09-.06,11.62-9.51,20.95-21.12,20.86-11.57-.09-20.86-9.51-20.79-21.07Zm20.94-17.86c-9.91,0-17.96,8.07-17.94,17.99,.01,9.91,8.08,17.97,17.98,17.96,9.9,0,17.95-8.08,17.94-18,0-9.92-8.07-17.96-17.98-17.95Z"/><path d="M29.92,77.53c6.66-.02,12.02,5.34,12.02,12,0,6.6-5.35,11.95-11.93,11.97-6.65,.01-12.02-5.35-12.02-12,0-6.6,5.34-11.94,11.93-11.96Zm.09,20.95c4.96-.03,8.97-4.07,8.93-9.02-.04-4.96-4.1-8.99-9.02-8.95-4.95,.04-8.96,4.11-8.93,9.04,.03,4.97,4.07,8.96,9.02,8.93Z"/></g></g></svg>