<?xml version="1.0" encoding="UTF-8"?><svg id="Layer_2" xmlns="http://www.w3.org/2000/svg" viewBox="0 0 71.73 119.68"><g id="Layer_1-2"><g><path d="M27,119.68c-.04-.47-.12-.94-.12-1.41,0-16.01,0-32.01,0-48.02v-1.45H0v-17.94H26.84V0h17.97V50.82h26.92v17.94h-26.88v1.37c0,16.05,0,32.09,0,48.14,0,.47-.08,.94-.12,1.41H27Zm14.89-3.04v-50.89h26.82v-11.97h-26.89V2.99h-11.98V53.85H3.02v11.97H29.91v50.82h11.98Z"/><path d="M20.81,44.65C14.72,31.59,8.77,18.84,2.78,5.98H20.81V44.65ZM7.5,9.01c3.44,7.36,6.81,14.6,10.18,21.83,.05-.03,.1-.06,.15-.08V9.01H7.5Z"/><path d="M50.88,44.29V6h18.06c-5.99,12.84-11.93,25.6-17.88,38.35-.06-.02-.12-.04-.18-.05Zm3.01-35.31V30.77c.06,.02,.12,.03,.18,.05,3.37-7.24,6.75-14.48,10.18-21.84h-10.35Z"/><path d="M20.84,75.31v38.3H2.78c5.98-12.83,11.94-25.61,17.89-38.38,.06,.03,.11,.06,.17,.08ZM7.5,110.57h10.33v-21.75c-.06-.01-.11-.03-.17-.04-3.37,7.22-6.73,14.44-10.16,21.79Z"/><path d="M68.96,113.63h-18.05v-38.72c6.1,13.09,12.05,25.85,18.05,38.72Zm-15.1-3.05h10.37c-3.43-7.36-6.81-14.6-10.18-21.83-.06,.03-.13,.06-.19,.09v21.74Z"/></g></g></svg>