<?xml version="1.0" encoding="UTF-8"?><svg id="Layer_2" xmlns="http://www.w3.org/2000/svg" viewBox="0 0 119.74 119.61"><g id="Layer_1-2"><g><path d="M7.54,7.53c4.15,1.94,8.04,3.75,11.93,5.56,7.59,3.54,15.18,7.06,22.76,10.63,.53,.25,1.09,.72,1.33,1.23,2.87,6.05,5.68,12.12,8.51,18.18,.05,.1,.07,.22,.14,.43-3.84,1.88-6.73,4.75-8.65,8.7-.75-.35-1.42-.66-2.1-.98-5.42-2.52-10.85-5.04-16.26-7.6-.53-.25-1.1-.71-1.34-1.22C18.44,30.94,13.06,19.38,7.54,7.53Zm6.34,6.25c.05,.28,.04,.39,.09,.48,4.05,8.7,8.1,17.4,12.19,26.08,.2,.42,.65,.8,1.08,1,2.8,1.35,5.63,2.64,8.45,3.95,2.19,1.02,4.38,2.04,6.33,2.95,2.16-2.15,4.18-4.17,6.25-6.23-2.21-4.74-4.48-9.66-6.82-14.54-.29-.61-.89-1.23-1.5-1.52-7.78-3.68-15.59-7.3-23.39-10.94-.85-.4-1.7-.79-2.66-1.24Z"/><path d="M76.14,67.46c2.28,1.07,4.48,2.1,6.67,3.12,3.94,1.84,7.89,3.66,11.81,5.52,.46,.22,.96,.62,1.17,1.06,5.42,11.54,10.8,23.09,16.19,34.65,.01,.03,0,.07,0,.22-.34-.14-.66-.25-.96-.39-11.2-5.22-22.41-10.44-33.6-15.68-.5-.23-1.05-.64-1.28-1.12-2.87-6.04-5.69-12.12-8.52-18.18-.06-.14-.09-.29-.17-.52,3.87-1.89,6.76-4.75,8.67-8.67Zm-4.72,10.25c2.21,4.74,4.48,9.66,6.82,14.54,.28,.58,.84,1.17,1.42,1.44,8.43,3.98,16.89,7.91,25.34,11.85,.24,.11,.48,.2,.82,.34-.04-.24-.04-.35-.08-.44-4.05-8.7-8.1-17.4-12.18-26.08-.19-.41-.67-.78-1.1-.99-2.15-1.05-4.33-2.03-6.5-3.04-2.84-1.32-5.68-2.65-8.28-3.86-2.13,2.13-4.12,4.11-6.26,6.23Z"/><path d="M7.56,112.09c3.47-7.45,6.85-14.7,10.22-21.94,1.98-4.26,3.96-8.52,5.97-12.76,.22-.47,.61-.99,1.05-1.2,6.19-2.93,12.41-5.81,18.74-8.75,1.9,3.84,4.74,6.76,8.66,8.66-.09,.25-.16,.47-.25,.68-2.77,5.95-5.54,11.91-8.35,17.85-.23,.49-.68,1.01-1.16,1.23-11.43,5.37-22.88,10.7-34.33,16.04-.1,.05-.21,.08-.55,.2Zm6.14-6.09c8.71-4.07,17.08-8,25.48-11.85,1.28-.59,2.08-1.37,2.66-2.65,2.11-4.71,4.33-9.38,6.4-13.83-2.13-2.13-4.14-4.15-6.22-6.23-4.88,2.28-9.94,4.62-14.98,7.02-.44,.21-.82,.73-1.04,1.2-2.67,5.65-5.3,11.32-7.94,16.99-1.41,3.02-2.81,6.04-4.36,9.37Z"/><path d="M112.11,7.59c-2.92,6.27-5.75,12.32-8.58,18.37-2.52,5.41-5.03,10.84-7.58,16.24-.25,.53-.69,1.12-1.2,1.36-6.01,2.86-12.05,5.66-18.08,8.47-.14,.06-.29,.1-.53,.19-1.89-3.87-4.75-6.76-8.68-8.66,.17-.39,.3-.71,.44-1.02,2.71-5.81,5.4-11.63,8.15-17.42,.25-.52,.73-1.07,1.25-1.31,11.4-5.36,22.82-10.67,34.24-15.99,.11-.05,.22-.08,.57-.22Zm-6.19,6.2c-.34,.12-.48,.16-.61,.22-8.63,4.02-17.27,8.04-25.89,12.09-.45,.21-.86,.7-1.08,1.16-1.92,4.03-3.79,8.07-5.67,12.12-.45,.96-.89,1.93-1.21,2.61,2.16,2.17,4.17,4.18,6.25,6.27,4.75-2.21,9.67-4.48,14.55-6.83,.58-.28,1.14-.86,1.42-1.45,3.54-7.49,7.03-15,10.53-22.5,.55-1.17,1.09-2.34,1.72-3.7Z"/><path d="M59.84,41.91c-1.18-2.52-2.25-4.82-3.32-7.11-2.04-4.37-4.09-8.73-6.08-13.12-.19-.42-.2-1.09,0-1.51,2.99-6.52,6.03-13.01,9.06-19.51,.08-.17,.17-.33,.33-.66,.22,.43,.39,.72,.53,1.02,2.96,6.35,5.94,12.7,8.87,19.07,.19,.41,.28,1.03,.11,1.4-3.09,6.73-6.24,13.43-9.49,20.41Zm0-34.9c-2.12,4.53-4.14,8.82-6.09,13.13-.2,.45-.17,1.16,.04,1.62,1.85,4.1,3.77,8.17,5.68,12.25,.1,.22,.25,.41,.43,.69,1.68-3.59,3.14-7.14,4.97-10.48,1.28-2.33,1.3-4.25,.01-6.58-1.85-3.37-3.31-6.94-5.04-10.63Z"/><path d="M0,59.85c.43-.22,.7-.36,.97-.49,6.36-2.97,12.71-5.94,19.09-8.87,.44-.2,1.11-.3,1.52-.11,6.63,3.04,13.24,6.14,19.85,9.22,.1,.04,.17,.14,.35,.29-.41,.2-.74,.38-1.09,.54-6.25,2.92-12.5,5.82-18.74,8.76-.71,.33-1.28,.35-2,.01-6.31-2.98-12.63-5.92-18.96-8.87-.27-.13-.54-.26-.99-.49Zm34.67,.08c-.12-.16-.15-.25-.21-.28-4.3-2.01-8.59-4.02-12.91-5.98-.39-.17-1.01-.09-1.42,.1-4.06,1.85-8.11,3.75-12.15,5.64-.26,.12-.51,.29-.85,.49,4.47,2.09,8.8,4.13,13.15,6.11,.37,.17,.95,.17,1.31,0,4.35-1.99,8.68-4.02,13.09-6.08Z"/><path d="M119.74,59.86c-3.07,1.43-5.95,2.77-8.82,4.11-3.76,1.75-7.51,3.52-11.28,5.24-.44,.2-1.11,.28-1.52,.09-6.59-3.03-13.16-6.11-19.73-9.18-.13-.06-.25-.13-.53-.29,.43-.21,.7-.35,.97-.48,6.32-2.95,12.65-5.89,18.96-8.86,.71-.34,1.29-.33,2,0,6.31,2.97,12.64,5.91,18.96,8.86,.27,.13,.54,.27,1,.5Zm-34.87-.01c4.55,2.12,8.84,4.14,13.15,6.11,.43,.19,1.1,.19,1.52,0,4.03-1.83,8.03-3.72,12.04-5.59,.3-.14,.6-.3,1.06-.52-3.53-1.65-6.99-3.02-10.2-4.84-2.6-1.47-4.77-1.45-7.36,.01-3.21,1.81-6.66,3.18-10.22,4.85Z"/><path d="M59.91,77.89c1.31,2.81,2.58,5.54,3.84,8.26,1.83,3.93,3.68,7.85,5.48,11.8,.19,.41,.28,1.02,.1,1.4-3.05,6.65-6.16,13.28-9.25,19.92-.04,.09-.14,.16-.3,.34-.41-.89-.79-1.7-1.17-2.51-2.72-5.84-5.46-11.68-8.15-17.53-.19-.41-.27-1.02-.1-1.4,3.06-6.65,6.16-13.28,9.26-19.92,.04-.09,.13-.16,.3-.35Zm-.16,34.58c.14-.08,.24-.1,.27-.15,2.02-4.33,4.05-8.65,6.03-13,.16-.35,.09-.93-.08-1.3-1.89-4.13-3.82-8.24-5.74-12.35-.1-.22-.25-.41-.43-.7-2.02,4.32-3.95,8.52-5.94,12.68-.38,.79-.4,1.4-.01,2.21,2.01,4.18,3.95,8.4,5.91,12.61Z"/><path d="M59.94,47.86c6.59,.04,11.91,5.42,11.89,12.03-.02,6.64-5.46,11.99-12.12,11.92-6.58-.06-11.88-5.48-11.83-12.09,.05-6.59,5.45-11.9,12.06-11.86Zm8.89,11.96c0-4.96-4.03-8.98-8.99-8.97-4.96,0-8.97,4.03-8.97,8.99,0,4.96,4.03,8.98,8.99,8.97,4.96,0,8.97-4.03,8.97-8.99Z"/></g></g></svg>