<?xml version="1.0" encoding="UTF-8"?><svg id="Layer_2" xmlns="http://www.w3.org/2000/svg" viewBox="0 0 83.44 119.49"><g id="Layer_1-2"><g><path d="M33.67,119.49c-.03-.15-.02-.32-.09-.45-2.48-4.31-4.97-8.62-7.55-13.1-2.58,4.47-5.09,8.81-7.59,13.16-.06-.02-.13-.04-.19-.06,2.58-21.03,5.16-42.07,7.77-63.31,4.35,4.56,9.49,6.99,15.63,7,6.15,.01,11.3-2.38,15.7-6.98,2.61,21.23,5.19,42.26,7.77,63.28-.06,.02-.13,.05-.19,.07-2.49-4.32-4.98-8.64-7.56-13.1-.22,.34-.39,.57-.53,.82-2.23,3.87-4.46,7.73-6.68,11.6-.19,.33-.29,.71-.43,1.07h-.24c-2.57-4.47-5.14-8.95-7.8-13.58-2.65,4.63-5.21,9.1-7.77,13.58h-.24Zm26.47-14.7c.06-.02,.13-.04,.19-.07-1.75-14.3-3.51-28.6-5.27-42.97-8.99,5.35-17.85,5.32-26.77-.01-1.77,14.42-3.52,28.7-5.27,42.99,.07,.02,.13,.03,.2,.05,.91-1.58,1.83-3.16,2.81-4.85,2.65,4.59,5.19,8.99,7.82,13.55,2.65-4.59,5.2-9,7.83-13.55,2.65,4.59,5.19,8.99,7.82,13.55,2.65-4.58,5.2-9,7.83-13.55,1,1.73,1.91,3.29,2.81,4.85Z"/><path d="M41.71,56.75c-8.25,0-14.95-6.66-14.97-14.89-.02-8.32,6.66-15.04,14.94-15.05,8.29,0,14.98,6.71,14.97,15.02-.01,8.24-6.7,14.91-14.94,14.92Zm11.94-14.92c.03-6.6-5.27-11.96-11.88-12-6.6-.05-11.95,5.23-12.03,11.86-.07,6.62,5.31,12.07,11.94,12.09,6.57,.01,11.94-5.34,11.97-11.94Z"/><path d="M12.26,12.18c6.16,3.56,12.33,7.12,18.43,10.65-2.67,2.63-5.31,5.25-7.99,7.9-3.47-6.01-7.04-12.2-10.6-18.38,.06-.05,.11-.11,.17-.16Zm13.62,11.35c-1.86-1.07-3.67-2.12-5.48-3.16-.04,.06-.07,.12-.11,.17,1.05,1.81,2.1,3.63,3.2,5.52,.8-.85,1.56-1.64,2.39-2.53Z"/><path d="M71.28,12.33c-3.56,6.18-7.13,12.36-10.61,18.4-2.65-2.63-5.28-5.24-7.96-7.9,6.06-3.5,12.24-7.07,18.42-10.64,.05,.05,.1,.1,.15,.14Zm-13.77,11.2c.84,.85,1.62,1.62,2.43,2.44,1-1.74,2.02-3.52,3.04-5.29-.07-.05-.15-.11-.22-.16-1.75,1.01-3.5,2.01-5.25,3.02Z"/><path d="M20.71,47.48c-6.96-1.87-13.83-3.71-20.7-5.55v-.24c6.87-1.85,13.75-3.69,20.7-5.56v11.35Zm-9.14-5.78c0,.07,0,.14,0,.21,2.03,.54,4.05,1.08,6.11,1.62v-3.46c-2.11,.56-4.11,1.1-6.11,1.63Z"/><path d="M62.68,47.48v-11.35c6.96,1.87,13.84,3.71,20.73,5.56,.01,.07,.02,.15,.03,.22-6.89,1.85-13.78,3.7-20.76,5.57Zm3.01-7.41v3.49c2.11-.57,4.12-1.11,6.13-1.66-.01-.07-.03-.14-.04-.21-1.98-.53-3.96-1.05-6.09-1.62Z"/><path d="M47.37,20.78h-11.34C37.89,13.81,39.74,6.9,41.59,0c.07,0,.14,0,.21,0,1.85,6.9,3.7,13.8,5.57,20.78Zm-3.92-3c-.58-2.15-1.12-4.15-1.66-6.15-.07,0-.13,0-.2,.01-.54,2.02-1.08,4.03-1.64,6.14h3.5Z"/></g></g></svg>