<?xml version="1.0" encoding="UTF-8"?><svg id="Layer_2" xmlns="http://www.w3.org/2000/svg" viewBox="0 0 119.38 59.89"><g id="Layer_1-2"><g><path d="M0,42.1c3.14-4.11,6.53-7.56,10.37-10.55,5.91-4.59,12.45-7.85,19.77-9.55,.41-.1,.89-.63,1.04-1.06C35.19,9.59,43.06,2.62,54.91,.46c14.14-2.58,28.31,5.88,33.05,19.55,.4,1.15,.99,1.61,2.1,1.88,8.93,2.15,17.64,1.88,26.03-2.2,1.07-.52,2.08-1.14,3.28-1.58-1.34,1.53-2.62,3.11-4.02,4.58-7.19,7.54-15.72,12.82-25.95,15.16-.72,.17-.94,.58-1.13,1.17-4.15,12.7-15.52,20.92-28.86,20.87-12.53-.05-23.84-8.19-27.93-20.15-.32-.94-.79-1.4-1.75-1.64-9-2.21-17.79-2-26.27,2.1-1.09,.53-2.14,1.16-3.47,1.89Zm10.87-7.71c7.22-1.47,14.28-.83,21.27,1.31,.98,.3,1.47,.74,1.77,1.77,3.68,12.92,16.47,21.13,29.76,19.14,10.92-1.64,19.44-9.39,22.24-20.26,.16-.62,.35-1.01,1.11-1.14,7.71-1.26,14.61-4.42,20.89-9.01,.27-.2,.52-.42,.93-.76-8.61,1.67-15.17,.65-21.48-1.21-.98-.29-1.47-.74-1.76-1.77-3.66-12.91-16.53-21.17-29.76-19.15-10.93,1.67-19.53,9.45-22.21,20.14-.2,.8-.52,1.17-1.38,1.29-1.46,.21-2.9,.55-4.32,.95-6.26,1.73-11.92,4.66-17.06,8.69Z"/><path d="M56.15,50.55c-8.51-1.18-15.53-8.35-17.08-17.24-1.92-11.01,5.73-21.94,16.73-23.95,.88-.16,1.5,.03,2.15,.6,2.78,2.43,4.82,5.28,4.1,9.15-.38,2.07-1.26,4.12-2.26,5.98-1.32,2.45-3.05,4.67-4.49,7.06-1.18,1.97-2.37,3.98-3.25,6.1-1.62,3.95-.76,7.5,2.24,10.53,.56,.56,1.15,1.09,1.86,1.77Zm-7.68-6.62c-.47-2.5-.09-4.7,.99-6.69,1.52-2.79,3.26-5.46,4.88-8.2,1.3-2.19,2.7-4.33,3.79-6.62,1.51-3.17,1.57-6.38-.44-9.45-.37-.57-.74-.79-1.46-.64-10.75,2.14-17.13,13.48-13.35,23.79,1.12,3.05,2.92,5.61,5.59,7.82Z"/><path d="M63.35,9.37c8.18,1.21,14.98,7.78,16.86,16.09,2.61,11.51-5.2,23.24-16.77,25.1-.51,.08-1.2-.08-1.6-.4-2.97-2.39-5.13-5.32-4.4-9.35,.38-2.07,1.26-4.11,2.27-5.98,1.32-2.45,3.05-4.67,4.48-7.06,1.2-2.01,2.42-4.05,3.29-6.21,1.55-3.86,.7-7.36-2.21-10.33-.58-.59-1.2-1.15-1.94-1.85Zm7.68,6.6c.46,2.49,.13,4.64-.92,6.55-1.7,3.1-3.65,6.06-5.45,9.11-1.16,1.95-2.38,3.88-3.32,5.93-1.43,3.1-1.52,6.23,.37,9.25,.43,.69,.87,.94,1.74,.75,9.57-2.1,15.72-11.19,13.98-20.81-.77-4.26-2.87-7.79-6.39-10.77Z"/></g></g></svg>