<?xml version="1.0" encoding="UTF-8"?><svg id="Layer_2" xmlns="http://www.w3.org/2000/svg" viewBox="0 0 495.76 222.12"><g id="Layer_1-2"><path d="M427.68,125.74c4.75-23.03-2.57-37.75-21.5-48.55-17.66-10.07-35.73-9.5-54.66-5.31-16.55,3.66-29.48,13.42-41,24.58-19.7,19.11-38.31,39.34-57.18,59.3-20.62,21.81-42.54,41.83-71.02,53.05-15.41,6.08-31.48,9.55-47.91,11.47-4.46,.52-8.92,2.04-13.31,1.81-6.91-.36-13.84-1.43-20.62-2.88-33.31-7.16-61.36-22.96-80.92-51.53C-11.73,122-4.97,64.6,36.13,26.26c13.83-12.91,31.07-19.54,49.37-22.23,31.46-4.63,58.25,4.92,77.26,31.03,14.22,19.52,17.87,41.61,6.5,63.66-10.24,19.87-26.88,32.42-49.94,34.47-22.21,1.97-43.87-11.3-50-33.65-.16-.6-.58-1.13-.95-1.83-5.57,13.26,.51,32.74,12.26,41.52,19.54,14.61,40.78,16.67,63.97,10.94,16.31-4.02,29.11-13.49,40.51-24.48,19.75-19.05,38.35-39.31,57.2-59.28,20.61-21.83,42.48-41.88,70.98-53.08,15.42-6.06,31.46-9.62,47.91-11.5,4.46-.51,8.92-2.04,13.31-1.81,6.91,.36,13.84,1.41,20.62,2.86,34.6,7.44,63.18,24.25,82.93,54.36,8.32,12.69,13.62,26.61,16.07,41.59,6.72,41.13-7.41,75.49-39.07,100.34-28.03,21.99-60.99,27.39-94.97,11.45-25.63-12.02-42.21-40.62-39.5-67.89,3.24-32.65,38.07-60.26,70.35-52.86,16.8,3.85,28.53,13.67,34.62,29.96,.56,1.49,1.09,3,2.14,5.9Zm-48.59-70.27c15.58-1.31,32.05,6.42,46.22,18,16.41,13.42,20.46,32.14,16.1,52.4-3.29,15.25-11.61,27.46-25.66,34.96-2.47,1.32-7.06,2.22-8.65,.89-3.1-2.59,.8-5.23,2.29-7.51,7.42-11.3,7.5-24.91-.01-36.09-7.69-11.45-21.93-17.67-34.39-15.48-9.86,1.73-17.97,6.44-25.3,13.01-11.82,10.59-18.02,23.79-15.44,39.46,5.2,31.6,34.09,51.81,64.14,50.54,23.07-.98,43.86-9.45,59.5-27.93,16.78-19.83,25.83-42.16,23.7-68.44-2.24-27.67-14.66-50.49-35.81-67.66-23.25-18.88-49.84-29.63-80.83-26.43-25.84,2.67-49.96,9.83-71.69,24.39-22.21,14.88-39.55,34.99-57.56,54.26-16.21,17.34-31.37,35.73-50.51,50-8.58,6.4-17.69,12.76-27.55,16.59-13.26,5.15-27.56,6.55-42.03,6.13-18.05-.52-33.46-7.7-46.44-19.08-15.42-13.51-19.23-31.7-14.83-51.35,3.36-15.04,11.44-27.19,25.3-34.65,2.59-1.39,7.38-2.36,9.06-.98,3.06,2.51-.94,5.2-2.43,7.48-7.45,11.45-7.5,24.68,.08,36.02,7.66,11.46,21.86,17.66,34.39,15.47,9.86-1.72,17.95-6.46,25.3-13.01,11.89-10.59,17.93-23.86,15.41-39.5-5.1-31.57-34.44-52.19-65.18-50.49-22.7,1.25-43.12,9.77-58.48,27.98-16.75,19.85-25.72,42.17-23.68,68.47,1.64,21.12,9.41,39.97,23.5,55.36,24.78,27.06,55.31,41.75,92.94,38.57,26.07-2.2,50.33-9.7,72.13-24.49,17.75-12.04,32.23-27.58,46.8-43.12,16.81-17.93,33.65-35.88,51.38-52.88,8.65-8.29,18.78-15.48,29.28-21.27,13.84-7.63,29.52-9.35,48.97-9.63Z"/></g></svg>