<?xml version="1.0" encoding="UTF-8"?><svg id="Layer_2" xmlns="http://www.w3.org/2000/svg" viewBox="0 0 119.71 105.85"><g id="Layer_1-2"><g><path d="M119.71,39.99c-.34,1.91-.6,3.85-1.05,5.74-1.56,6.55-5.25,11.82-10.1,16.34-4.7,4.38-10.07,7.84-15.55,11.12-8.96,5.37-17.09,11.74-24.12,19.49-2.85,3.14-5.53,6.4-7.44,10.22-.48,.95-1.08,1.85-1.73,2.96-.33-.5-.63-.82-.78-1.19-2.5-6.38-7.07-11.23-11.8-15.94-5.61-5.59-12.12-9.97-18.91-13.98-5.43-3.21-10.8-6.52-15.59-10.66C6.49,58.75,1.79,52.43,.61,44.23c-1.87-12.97,.4-25.07,9.45-35.05C19.36-1.07,34.13-2.88,45.86,4.48c2.12,1.33,4.1,2.92,5.94,4.62,4.52,4.18,4.91,10.88,1.06,15.57-3.75,4.57-10.47,5.49-15.32,2.09-4.93-3.46-6.28-10.02-3.14-15.31,.08-.13,.16-.25,.31-.49-2.85-.04-5.41,.59-7.86,1.7-6.26,2.83-10.24,7.75-12.58,14.05-2.31,6.22-3.03,12.64-1.68,19.18,1.15,5.57,4.34,9.95,8.48,13.7,3.72,3.37,7.92,6.05,12.23,8.58,6.73,3.96,13.27,8.19,18.65,13.91,2.67,2.83,4.98,6.01,7.45,9.02,.07,.08,.17,.13,.39,.29,0-.39,0-.64,0-.9,0-23.07,0-46.15,.03-69.22,0-.83,.26-1.74,.66-2.46,3.94-7.11,9.36-12.71,16.93-15.94,14.91-6.35,31.1,.08,38.18,15.13,2.27,4.82,3.42,9.93,3.9,15.22,.05,.51,.15,1.01,.22,1.51v5.27Zm-59.9,59.34c1.45-1.94,2.79-3.88,4.28-5.69,7.32-8.86,16.04-16.07,25.83-22.06,5.41-3.31,10.81-6.64,15.62-10.83,7.88-6.86,11.81-15.34,11.07-25.91-.49-6.96-2.07-13.54-5.93-19.45-6.5-9.94-18.3-14.31-29.37-10.78-8.05,2.56-13.8,7.93-17.92,15.17-.37,.65-.59,1.49-.6,2.24-.03,22.63-.09,45.27,.05,67.9,.02,3.18-1.73,5.29-2.95,7.8-1.78-2.77-3.29-5.55-5.2-8.03-4.93-6.38-11-11.52-17.81-15.82-5.02-3.17-10.11-6.27-14.94-9.71-5.12-3.64-9.42-8.24-11.27-14.36-3.67-12.1-1.77-23.44,6.22-33.35,4.86-6.03,11.53-8.82,19.31-8.54,2.08,.07,4.14,.61,6.21,.93-.02,.12-.04,.23-.06,.35-4.85,1.42-7.43,5.44-6.46,10.06,.72,3.41,3.52,5.97,7.13,6.51,3.29,.5,6.77-1.29,8.42-4.32,1.64-3.01,1.3-6.99-.97-9.39C38.72-.34,20.81,.03,10.63,13.13,3.7,22.05,2.01,32.44,3.48,43.39c.92,6.84,4.64,12.29,9.57,16.98,4.87,4.63,10.54,8.14,16.29,11.5,12.06,7.05,22.81,15.51,30.46,27.46Z"/><path d="M89.43,50.18c-11.29-.05-20.34-9.19-20.3-20.5,.04-11.21,9.21-20.31,20.42-20.27,11.32,.04,20.39,9.26,20.31,20.63-.07,11.1-9.3,20.19-20.43,20.14Zm17.42-20.37c0-9.6-7.73-17.37-17.32-17.38-9.58-.02-17.39,7.74-17.43,17.3-.04,9.61,7.79,17.45,17.41,17.45,9.58,0,17.34-7.77,17.34-17.37Z"/><path d="M100.86,29.85c-.03,6.32-5.15,11.38-11.48,11.33-6.23-.05-11.33-5.21-11.28-11.44,.04-6.3,5.2-11.38,11.51-11.33,6.26,.05,11.29,5.16,11.26,11.44Zm-19.74-.07c0,4.63,3.7,8.37,8.33,8.4,4.61,.03,8.41-3.71,8.44-8.31,.04-4.66-3.76-8.48-8.41-8.47-4.62,.01-8.36,3.76-8.36,8.38Z"/></g></g></svg>