<?xml version="1.0" encoding="UTF-8"?><svg id="Layer_2" xmlns="http://www.w3.org/2000/svg" viewBox="0 0 441.05 500"><g id="Layer_1-2"><g><path d="M222.19,0c5.31,15.04,10.7,30.05,15.92,45.11,10.23,29.54,20.26,59.15,30.63,88.64,2.05,5.84,1.62,9.98-3.05,14.68-13.7,13.81-26.78,28.24-40.17,42.36-4.09,4.31-4.99,4.29-9.17-.1-14.34-15.07-28.55-30.26-42.96-45.27-2.55-2.66-2.34-5.19-1.31-8.18,10.67-30.97,21.33-61.94,31.97-92.92C209.12,29.56,214.14,14.78,219.19,0c1,0,2,0,3,0Zm-.96,46.66c-.67,.93-1.02,1.25-1.16,1.64-9.99,28.91-19.99,57.82-29.84,86.78-.39,1.15,.25,3.19,1.13,4.15,7.42,8.09,15.01,16.03,22.56,24,2.23,2.36,4.49,4.7,6.99,7.31,10.24-10.74,20.16-21.02,29.86-31.51,.88-.95,.92-3.34,.45-4.76-5.16-15.45-10.5-30.84-15.79-46.24-4.68-13.62-9.35-27.25-14.2-41.38Z"/><path d="M220.19,500c-1.09-2.23-2.4-4.38-3.23-6.7-9.98-27.88-19.93-55.77-29.71-83.72-.69-1.96-.74-4.82,.2-6.58,10.28-19.22,20.8-38.31,31.3-57.42,.45-.82,1.26-1.44,2.39-2.69,1.49,2.15,2.96,3.89,4.03,5.85,9.27,16.94,18.35,33.97,27.75,50.83,2.39,4.28,2.79,8.18,1.12,12.76-10,27.52-19.82,55.1-29.79,82.63-.66,1.81-2.03,3.37-3.07,5.04h-1Zm.73-124.41c-5.73,10.47-11.1,20.06-16.18,29.79-.7,1.35-.39,3.55,.13,5.15,2.29,7.12,4.79,14.18,7.28,21.24,2.73,7.73,5.52,15.43,8.75,24.41,5.93-16.47,11.4-31.61,16.77-46.78,.35-.98,.32-2.41-.16-3.3-5.32-9.94-10.76-19.82-16.59-30.5Z"/><path d="M150.12,251.23c-6.97,8.08-13.66,15.69-20.11,23.5-.85,1.03-.89,3.17-.57,4.63,4.99,22.71,10.12,45.4,15.17,68.1,.45,2.03,.64,4.12,.95,6.19-.37,.25-.75,.51-1.12,.76-1.66-1.42-3.51-2.66-4.94-4.28-21.69-24.58-43.32-49.22-64.99-73.83-1.81-2.05-2.48-3.74-.92-6.57,18.87-34.25,37.57-68.6,56.34-102.91,1.1-2.01,2.45-3.87,4.01-6.31,1.63,1.23,2.98,2.09,4.16,3.15,25.69,22.97,51.37,45.95,77.02,68.96,5.55,4.98,5.54,5.14,11.02,.25,25.33-22.62,50.61-45.28,75.91-67.93,.74-.67,1.55-1.27,2.25-1.97,2.53-2.54,4.26-2.28,6.05,1.04,8.44,15.68,17.06,31.25,25.61,46.88,10.46,19.12,20.8,38.3,31.43,57.33,2.22,3.98,1.35,6.61-1.4,9.71-20.31,22.92-40.53,45.94-60.75,68.94-1.42,1.62-2.61,3.47-4.12,4.99-1.03,1.04-2.44,1.71-3.67,2.54-.42-1.62-1.42-3.36-1.13-4.85,.81-4.22,2.29-8.31,3.24-12.51,4.37-19.45,8.68-38.91,12.91-58.39,.27-1.26,.17-3.12-.58-4.02-6.52-7.75-13.22-15.34-20.23-23.39-4.71,3.9-9.16,7.56-13.6,11.24-17.16,14.25-34.41,28.39-51.42,42.82-4.05,3.43-6.87,3.64-11.07,.08-20.58-17.41-41.42-34.5-62.18-51.7-.88-.73-1.82-1.38-3.24-2.45Zm153.88-64.4c-.71,.36-1.21,.5-1.55,.81-25.7,22.96-51.42,45.89-77.02,68.96-3.02,2.72-5.21,3.27-8.45,.35-21.4-19.26-42.92-38.38-64.42-57.54-4.76-4.25-9.56-8.45-14.59-12.89-15.53,28.5-30.7,56.36-45.9,84.26,8.18,9.3,16.11,18.31,24.89,28.3-1.91-9.19-3.71-16.93-5.02-24.75-.33-1.97,.3-4.74,1.56-6.23,9.98-11.83,20.23-23.44,30.37-35.13,4.61-5.32,5.08-5.29,10.3-.92,21.2,17.72,42.46,35.37,63.67,53.07,1.92,1.6,3.37,2.59,5.89,.47,21.39-18,42.92-35.84,64.39-53.75,4.9-4.09,5.19-4.22,9.56,.75,9.78,11.12,19.32,22.47,29.21,33.49,2.97,3.31,4.09,6.32,2.81,10.76-1.96,6.77-3.21,13.74-4.76,20.63,.31,.16,.62,.31,.93,.47,7.95-9.04,15.9-18.09,23.94-27.23-15.34-28.09-30.56-55.96-45.82-83.88Z"/><path d="M0,409.28c.94-3.36,1.21-5.27,1.98-6.94,14.46-31.42,28.95-62.82,43.49-94.2,3.17-6.84,3.96-6.82,8.91-.98,14.1,16.61,28.25,33.18,42.43,49.72,4.5,5.24,4.49,5.69-1.86,8.59-28.13,12.85-56.27,25.66-84.39,38.52-3.09,1.41-6.08,3.04-10.56,5.3Zm73.92-53.35c-7.3-8.49-13.97-16.26-21.15-24.61-6.76,14.63-13.2,28.57-20.17,43.67,14.49-6.68,27.58-12.73,41.32-19.06Z"/><path d="M441.05,408.62c-7.86-3.48-14.67-6.39-21.4-9.48-24.15-11.08-48.28-22.22-72.41-33.36-6.65-3.07-6.78-4.03-2.06-9.45,14.64-16.79,29.23-33.63,43.81-50.48,3.57-4.13,4.36-4.06,6.66,.91,14.73,31.83,29.48,63.65,44.14,95.51,.75,1.62,.74,3.59,1.26,6.34Zm-33.71-34.59c.32-.34,.64-.68,.96-1.02-6.31-13.72-12.63-27.44-19.23-41.78-7.27,8.52-13.99,16.39-21.12,24.73,13.64,6.26,26.52,12.17,39.39,18.07Z"/></g></g></svg>